<svg width="46" height="46" viewBox="0 0 46 46" fill="none" xmlns="http://www.w3.org/2000/svg">
<ellipse cx="22.9981" cy="23" rx="22.9981" ry="23" fill="white"/>
<g clip-path="url(#clip0_1_59)">
<path d="M30.4239 16.9365C30.5511 16.233 30.5128 15.5 30.3136 14.822C30.1143 14.144 29.7622 13.5487 29.2979 13.1049C28.8336 12.661 28.276 12.3868 27.6896 12.3137C27.1031 12.2407 26.5117 12.3719 25.9837 12.6921C25.7867 11.9124 25.3906 11.2304 24.8533 10.7459C24.316 10.2614 23.6658 10 22.9981 10C22.3304 10 21.6802 10.2614 21.1429 10.7459C20.6056 11.2304 20.2094 11.9124 20.0125 12.6921C19.4844 12.3719 18.893 12.2407 18.3066 12.3137C17.7201 12.3868 17.1626 12.661 16.6983 13.1049C16.2339 13.5487 15.8818 14.144 15.6826 14.822C15.4834 15.5 15.4451 16.233 15.5723 16.9365C14.804 17.1051 14.1151 17.6191 13.6413 18.3773C13.1675 19.1355 12.9431 20.083 13.0123 21.0332C13.0815 21.9834 13.4392 22.8676 14.015 23.5117C14.5909 24.1558 15.3432 24.5132 16.1238 24.5134H16.1863C16.352 25.5059 16.8336 26.3773 17.5251 26.9359C18.2166 27.4944 19.0613 27.6945 19.8734 27.4919C20.6856 27.2894 21.3986 26.7008 21.8557 25.8558C22.3127 25.0108 22.4764 23.9785 22.3107 22.986H23.0606C22.9046 23.9807 23.0783 25.0103 23.5435 25.8484C24.0087 26.6865 24.7273 27.2645 25.5412 27.4552C26.3551 27.6458 27.1976 27.4335 27.8835 26.865C28.5693 26.2965 29.0422 25.4183 29.1982 24.4237C29.6049 24.5363 30.026 24.5484 30.4365 24.459C30.8471 24.3697 31.2389 24.1809 31.5888 23.9036C31.9387 23.6264 32.2396 23.2663 32.4739 22.8447C32.7082 22.4231 32.871 21.9485 32.9528 21.4487C33.0346 20.949 33.0338 20.4343 32.9503 19.935C32.8668 19.4357 32.7023 18.9619 32.4667 18.5415C32.231 18.121 31.9288 17.7625 31.578 17.487C31.2271 17.2115 30.8347 17.0247 30.4239 16.9374V16.9365Z" fill="#2A9D8F"/>
<path d="M20.9612 35.5249H25.0527L24.4682 20.4973H21.5457L20.9612 35.5249Z" fill="#2A9D8F"/>
</g>
<defs>
<clipPath id="clip0_1_59">
<rect width="20.0135" height="25.5249" fill="white" transform="translate(13 10)"/>
</clipPath>
</defs>
</svg>
