<svg width="98" height="98" viewBox="0 0 98 98" fill="none" xmlns="http://www.w3.org/2000/svg">
<circle cx="49" cy="49" r="47.5" fill="#2A9D8F" stroke="white" stroke-width="3"/>
<g clip-path="url(#clip0_1_11)">
<path d="M64.8402 36.0819C65.1112 34.5833 65.0297 33.0216 64.6052 31.5771C64.1807 30.1327 63.4305 28.8645 62.4413 27.9189C61.452 26.9734 60.264 26.389 59.0145 26.2334C57.765 26.0778 56.505 26.3573 55.38 27.0396C54.9603 25.3785 54.1162 23.9254 52.9714 22.8932C51.8267 21.8611 50.4414 21.3042 49.0187 21.3042C47.5961 21.3042 46.2108 21.8611 45.0661 22.8932C43.9213 23.9254 43.0772 25.3785 42.6575 27.0396C41.5325 26.3573 40.2725 26.0778 39.023 26.2334C37.7735 26.389 36.5855 26.9734 35.5962 27.9189C34.6069 28.8645 33.8567 30.1327 33.4322 31.5771C33.0077 33.0216 32.9263 34.5833 33.1972 36.0819C31.5602 36.4412 30.0925 37.5362 29.0831 39.1515C28.0736 40.7668 27.5955 42.7853 27.7429 44.8097C27.8902 46.8341 28.6524 48.7178 29.8793 50.09C31.1062 51.4622 32.7091 52.2236 34.3723 52.2241H34.5054C34.8586 54.3386 35.8846 56.195 37.3579 57.385C38.8311 58.575 40.6309 59.0011 42.3613 58.5696C44.0916 58.1381 45.6108 56.8843 46.5847 55.084C47.5585 53.2837 47.9072 51.0845 47.5541 48.97H49.1519C48.8195 51.0891 49.1896 53.2826 50.1808 55.0682C51.1719 56.8538 52.703 58.0851 54.4371 58.4913C56.1712 58.8974 57.9663 58.4452 59.4276 57.234C60.8888 56.0229 61.8965 54.152 62.2288 52.0329C63.0954 52.2729 63.9924 52.2985 64.8672 52.1082C65.7419 51.9179 66.5767 51.5156 67.3222 50.9249C68.0677 50.3343 68.7089 49.5672 69.208 48.669C69.7072 47.7708 70.0541 46.7596 70.2284 45.695C70.4027 44.6304 70.4009 43.5339 70.223 42.4701C70.0451 41.4064 69.6948 40.397 69.1926 39.5013C68.6905 38.6056 68.0467 37.8418 67.2992 37.2548C66.5517 36.6679 65.7156 36.2698 64.8402 36.0839V36.0819Z" fill="white"/>
<path d="M44.6789 75.6833H53.3956L52.1503 43.668H45.9241L44.6789 75.6833Z" fill="white"/>
</g>
<defs>
<clipPath id="clip0_1_11">
<rect width="42.6411" height="54.3791" fill="white" transform="translate(27.7167 21.3042)"/>
</clipPath>
</defs>
</svg>
